<svg width="280" height="96" viewBox="0 0 280 96" fill="none" xmlns="http://www.w3.org/2000/svg">
<path d="M11.312 31.364C13.104 31.364 14.756 30.944 16.268 30.076C17.78 29.208 18.956 28.032 19.768 26.576L17.5 25.288C16.38 27.416 14 28.816 11.312 28.816C9.044 28.816 7.196 28.088 5.768 26.632C4.34 25.176 3.64 23.356 3.64 21.2C3.64 19.016 4.34 17.196 5.768 15.74C7.196 14.284 9.044 13.556 11.312 13.556C14 13.556 16.38 14.956 17.5 17.112L19.768 15.796C18.088 12.884 14.896 11.036 11.312 11.036C8.344 11.036 5.88 12.016 3.948 13.976C2.016 15.936 1.064 18.344 1.064 21.2C1.064 24.056 2.016 26.464 3.948 28.424C5.88 30.384 8.344 31.364 11.312 31.364ZM35.4025 19.408C34.1985 17.56 32.4345 16.636 30.1105 16.636C28.1505 16.636 26.4705 17.364 25.0985 18.792C23.7265 20.22 23.0265 21.956 23.0265 24C23.0265 26.044 23.7265 27.808 25.0985 29.236C26.4705 30.664 28.1505 31.364 30.1105 31.364C32.4345 31.364 34.1985 30.44 35.4025 28.592V31H37.8385V17H35.4025V19.408ZM30.4185 29.012C29.0185 29.012 27.8425 28.536 26.8905 27.584C25.9385 26.604 25.4625 25.428 25.4625 24C25.4625 22.572 25.9385 21.396 26.8905 20.444C27.8425 19.464 29.0185 18.988 30.4185 18.988C31.8465 18.988 33.0225 19.464 33.9745 20.444C34.9265 21.396 35.4025 22.572 35.4025 24C35.4025 25.428 34.9265 26.604 33.9745 27.584C33.0225 28.536 31.8465 29.012 30.4185 29.012ZM45.3652 17H42.9292V31H45.3652V23.58C45.3652 22.04 45.7852 20.948 46.6532 20.248C47.5212 19.548 48.5292 19.24 49.7332 19.296V16.748C47.6332 16.748 46.1772 17.616 45.3652 19.352V17ZM63.4419 23.58V21.228H53.2219V23.58H63.4419ZM83.536 31L78.916 23.16C80.12 22.74 81.072 21.984 81.828 20.948C82.584 19.912 82.976 18.736 82.976 17.476C82.976 15.796 82.388 14.368 81.184 13.192C79.98 11.988 78.552 11.4 76.872 11.4H69.032V31H71.636V23.496H76.256L80.652 31H83.536ZM76.872 13.836C77.852 13.836 78.664 14.2 79.336 14.9C80.036 15.6 80.372 16.468 80.372 17.476C80.372 18.484 80.036 19.352 79.336 20.08C78.664 20.78 77.852 21.144 76.872 21.144H71.636V13.836H76.872ZM98.1783 19.408C96.9743 17.56 95.2103 16.636 92.8863 16.636C90.9263 16.636 89.2463 17.364 87.8743 18.792C86.5023 20.22 85.8023 21.956 85.8023 24C85.8023 26.044 86.5023 27.808 87.8743 29.236C89.2463 30.664 90.9263 31.364 92.8863 31.364C95.2103 31.364 96.9743 30.44 98.1783 28.592V31H100.614V17H98.1783V19.408ZM93.1943 29.012C91.7943 29.012 90.6183 28.536 89.6663 27.584C88.7143 26.604 88.2383 25.428 88.2383 24C88.2383 22.572 88.7143 21.396 89.6663 20.444C90.6183 19.464 91.7943 18.988 93.1943 18.988C94.6223 18.988 95.7983 19.464 96.7503 20.444C97.7023 21.396 98.1783 22.572 98.1783 24C98.1783 25.428 97.7023 26.604 96.7503 27.584C95.7983 28.536 94.6223 29.012 93.1943 29.012ZM113.433 16.636C111.109 16.636 109.345 17.56 108.141 19.408V17H105.705V36.6H108.141V28.592C109.345 30.44 111.109 31.364 113.433 31.364C115.393 31.364 117.073 30.664 118.445 29.236C119.817 27.808 120.517 26.044 120.517 24C120.517 21.956 119.817 20.22 118.445 18.792C117.073 17.364 115.393 16.636 113.433 16.636ZM113.125 29.012C111.697 29.012 110.521 28.536 109.569 27.584C108.617 26.604 108.141 25.428 108.141 24C108.141 22.572 108.617 21.396 109.569 20.444C110.521 19.464 111.697 18.988 113.125 18.988C114.525 18.988 115.701 19.464 116.653 20.444C117.605 21.396 118.081 22.572 118.081 24C118.081 25.428 117.605 26.604 116.653 27.584C115.701 28.536 114.525 29.012 113.125 29.012ZM138.264 25.12C138.32 24.756 138.348 24.392 138.348 24.028C138.348 21.984 137.704 20.248 136.388 18.82C135.1 17.364 133.42 16.636 131.376 16.636C129.22 16.636 127.456 17.336 126.084 18.736C124.712 20.136 124.04 21.9 124.04 24C124.04 26.128 124.74 27.892 126.112 29.292C127.512 30.664 129.332 31.364 131.544 31.364C134.288 31.364 136.332 30.3 137.704 28.2L135.632 27.024C134.792 28.396 133.448 29.068 131.6 29.068C128.94 29.068 127.008 27.612 126.532 25.12H138.264ZM131.376 18.932C133.616 18.932 135.464 20.332 135.884 22.992H126.532C126.952 20.528 128.772 18.932 131.376 18.932ZM149.754 17H146.03V13.08L143.594 13.808V17H140.822V19.352H143.594V26.94C143.594 30.412 145.498 31.56 149.754 31V28.816C147.262 28.928 146.03 29.096 146.03 26.94V19.352H149.754V17ZM155.27 14.452C156.166 14.452 156.894 13.724 156.894 12.828C156.894 11.932 156.166 11.176 155.27 11.176C154.346 11.176 153.618 11.932 153.618 12.828C153.618 13.724 154.346 14.452 155.27 14.452ZM156.474 31V17H154.038V31H156.474ZM169.206 17H165.482V13.08L163.046 13.808V17H160.274V19.352H163.046V26.94C163.046 30.412 164.95 31.56 169.206 31V28.816C166.714 28.928 165.482 29.096 165.482 26.94V19.352H169.206V17ZM174.722 14.452C175.618 14.452 176.346 13.724 176.346 12.828C176.346 11.932 175.618 11.176 174.722 11.176C173.798 11.176 173.07 11.932 173.07 12.828C173.07 13.724 173.798 14.452 174.722 14.452ZM175.926 31V17H173.49V31H175.926ZM192.859 29.236C194.287 27.808 195.015 26.072 195.015 24C195.015 21.928 194.287 20.192 192.859 18.764C191.431 17.336 189.667 16.636 187.623 16.636C185.579 16.636 183.815 17.336 182.387 18.764C180.959 20.192 180.259 21.928 180.259 24C180.259 26.072 180.959 27.808 182.387 29.236C183.815 30.664 185.579 31.364 187.623 31.364C189.667 31.364 191.431 30.664 192.859 29.236ZM187.623 28.984C186.251 28.984 185.075 28.508 184.123 27.556C183.171 26.604 182.695 25.428 182.695 24C182.695 22.572 183.171 21.396 184.123 20.444C185.075 19.492 186.251 19.016 187.623 19.016C189.023 19.016 190.199 19.492 191.151 20.444C192.103 21.396 192.579 22.572 192.579 24C192.579 25.428 192.103 26.604 191.151 27.556C190.199 28.508 189.023 28.984 187.623 28.984ZM206.258 16.636C204.214 16.636 202.702 17.42 201.722 19.016V17H199.286V31H201.722V23.58C201.722 20.444 203.346 18.96 205.782 18.96C207.938 18.96 209.254 20.276 209.254 22.544V31H211.69V22.404C211.69 18.848 209.534 16.636 206.258 16.636ZM240.823 31L233.515 11.4H230.575L223.267 31H226.039L227.635 26.604H236.455L238.051 31H240.823ZM232.031 14.508L235.559 24.168H228.531L232.031 14.508ZM252.011 16.636C249.687 16.636 247.923 17.56 246.719 19.408V17H244.283V36.6H246.719V28.592C247.923 30.44 249.687 31.364 252.011 31.364C253.971 31.364 255.651 30.664 257.023 29.236C258.395 27.808 259.095 26.044 259.095 24C259.095 21.956 258.395 20.22 257.023 18.792C255.651 17.364 253.971 16.636 252.011 16.636ZM251.703 29.012C250.275 29.012 249.099 28.536 248.147 27.584C247.195 26.604 246.719 25.428 246.719 24C246.719 22.572 247.195 21.396 248.147 20.444C249.099 19.464 250.275 18.988 251.703 18.988C253.103 18.988 254.279 19.464 255.231 20.444C256.183 21.396 256.659 22.572 256.659 24C256.659 25.428 256.183 26.604 255.231 27.584C254.279 28.536 253.103 29.012 251.703 29.012ZM271.13 16.636C268.806 16.636 267.042 17.56 265.838 19.408V17H263.402V36.6H265.838V28.592C267.042 30.44 268.806 31.364 271.13 31.364C273.09 31.364 274.77 30.664 276.142 29.236C277.514 27.808 278.214 26.044 278.214 24C278.214 21.956 277.514 20.22 276.142 18.792C274.77 17.364 273.09 16.636 271.13 16.636ZM270.822 29.012C269.394 29.012 268.218 28.536 267.266 27.584C266.314 26.604 265.838 25.428 265.838 24C265.838 22.572 266.314 21.396 267.266 20.444C268.218 19.464 269.394 18.988 270.822 18.988C272.222 18.988 273.398 19.464 274.35 20.444C275.302 21.396 275.778 22.572 275.778 24C275.778 25.428 275.302 26.604 274.35 27.584C273.398 28.536 272.222 29.012 270.822 29.012Z" fill="white"/>
<path opacity="0.8" d="M7.488 71.192C8.368 70.648 8.8 69.848 8.8 68.808C8.8 67.992 8.512 67.288 7.92 66.696C7.328 66.104 6.624 65.8 5.792 65.8H1.28V77H6.16C7.024 77 7.76 76.696 8.368 76.088C8.976 75.48 9.28 74.744 9.28 73.88C9.28 72.664 8.576 71.656 7.488 71.192ZM5.792 66.856C6.32 66.856 6.752 67.048 7.12 67.432C7.488 67.816 7.68 68.28 7.68 68.808C7.68 69.352 7.488 69.816 7.12 70.2C6.752 70.568 6.32 70.76 5.792 70.76H2.4V66.856H5.792ZM2.4 75.944V71.816H6.16C6.72 71.816 7.184 72.024 7.568 72.424C7.968 72.824 8.16 73.32 8.16 73.88C8.16 74.456 7.968 74.952 7.568 75.352C7.184 75.752 6.72 75.944 6.16 75.944H2.4ZM18.5459 75.992C19.3619 75.176 19.7779 74.184 19.7779 73C19.7779 71.816 19.3619 70.824 18.5459 70.024C17.7299 69.208 16.7379 68.808 15.5699 68.808C14.4019 68.808 13.3939 69.208 12.5779 70.024C11.7619 70.824 11.3619 71.816 11.3619 73C11.3619 74.184 11.7619 75.176 12.5779 75.992C13.3939 76.792 14.4019 77.192 15.5699 77.192C16.7379 77.192 17.7299 76.792 18.5459 75.992ZM13.3299 75.256C12.7219 74.632 12.4179 73.88 12.4179 73C12.4179 72.12 12.7219 71.368 13.3299 70.76C13.9379 70.136 14.6899 69.832 15.5699 69.832C16.4499 69.832 17.2019 70.136 17.8099 70.76C18.4179 71.368 18.7219 72.12 18.7219 73C18.7219 73.88 18.4179 74.632 17.8099 75.256C17.2019 75.864 16.4499 76.168 15.5699 76.168C14.6899 76.168 13.9379 75.864 13.3299 75.256ZM29.225 70.568C28.489 69.4 27.417 68.808 25.993 68.808C24.857 68.808 23.881 69.208 23.065 70.024C22.265 70.84 21.865 71.832 21.865 73C21.865 74.168 22.265 75.16 23.065 75.976C23.881 76.792 24.857 77.192 25.993 77.192C27.417 77.192 28.489 76.6 29.225 75.432V77H30.281V69H29.225V70.568ZM23.833 75.256C23.225 74.632 22.921 73.88 22.921 73C22.921 72.12 23.225 71.368 23.833 70.76C24.441 70.136 25.193 69.832 26.073 69.832C26.953 69.832 27.705 70.136 28.313 70.76C28.921 71.368 29.225 72.12 29.225 73C29.225 73.88 28.921 74.632 28.313 75.256C27.705 75.864 26.953 76.168 26.073 76.168C25.193 76.168 24.441 75.864 23.833 75.256ZM34.3729 69H33.3169V77H34.3729V72.552C34.3729 70.712 35.4449 69.896 36.9009 69.896V68.872C35.7009 68.872 34.8689 69.352 34.3729 70.328V69ZM45.5438 70.568C44.8078 69.4 43.7358 68.808 42.3118 68.808C41.1758 68.808 40.1998 69.208 39.3838 70.024C38.5838 70.84 38.1838 71.832 38.1838 73C38.1838 74.168 38.5838 75.16 39.3838 75.976C40.1998 76.792 41.1758 77.192 42.3118 77.192C43.7358 77.192 44.8078 76.6 45.5438 75.432V77H46.5998V65.8H45.5438V70.568ZM40.1518 75.256C39.5438 74.632 39.2398 73.88 39.2398 73C39.2398 72.12 39.5438 71.368 40.1518 70.76C40.7598 70.136 41.5118 69.832 42.3918 69.832C43.2718 69.832 44.0238 70.136 44.6318 70.76C45.2398 71.368 45.5438 72.12 45.5438 73C45.5438 73.88 45.2398 74.632 44.6318 75.256C44.0238 75.864 43.2718 76.168 42.3918 76.168C41.5118 76.168 40.7598 75.864 40.1518 75.256Z" fill="white"/>
</svg>
